<svg id="SvgjsSvg1001" width="288" height="288" xmlns="http://www.w3.org/2000/svg" version="1.1" xmlns:xlink="http://www.w3.org/1999/xlink" xmlns:svgjs="http://svgjs.com/svgjs"><rect id="SvgjsRect1066" width="288" height="288" rx="20" ry="20" transform="matrix(1,0,0,1,0,0)" fill="#ffffff"></rect><defs id="SvgjsDefs1002"></defs><g id="SvgjsG1008" transform="matrix(0.94,0,0,0.94,8.640000000000015,8.640000000000015)"><svg xmlns="http://www.w3.org/2000/svg" enable-background="new 0 0 64 64" viewBox="0 0 64 64" width="288" height="288"><path fill="#bdbdbd" d="M57.5,57h-56c-0.552,0-1,0.448-1,1v3c0,0.552,0.448,1,1,1h56c0.552,0,1-0.448,1-1v-3				C58.5,57.448,58.052,57,57.5,57z" class="colorbdbdbd svgShape"></path><path fill="#37474f" d="M57.5,56.5h-56C0.673,56.5,0,57.173,0,58v3c0,0.827,0.673,1.5,1.5,1.5h56c0.827,0,1.5-0.673,1.5-1.5v-3
				C59,57.173,58.327,56.5,57.5,56.5z M58,61c0,0.276-0.224,0.5-0.5,0.5h-56C1.224,61.5,1,61.276,1,61v-3c0-0.276,0.224-0.5,0.5-0.5
				h56c0.276,0,0.5,0.224,0.5,0.5V61z" class="color37474f svgShape"></path><path fill="#bdbdbd" d="M1.5,5.5c-0.552,0-1,0.448-1,1v3c0,0.552,0.448,1,1,1H25v-5H1.5z" class="colorbdbdbd svgShape"></path><path fill="#37474f" d="M25,5H1.5C0.673,5,0,5.673,0,6.5v3C0,10.327,0.673,11,1.5,11H25c0.276,0,0.5-0.224,0.5-0.5v-5
				C25.5,5.224,25.276,5,25,5z M24.5,10h-23C1.224,10,1,9.776,1,9.5v-3C1,6.224,1.224,6,1.5,6h23V10z" class="color37474f svgShape"></path><path fill="#eeeeee" d="M62.5,5.5H41v5h21.5c0.552,0,1-0.448,1-1v-3C63.5,5.948,63.052,5.5,62.5,5.5z" class="coloreee svgShape"></path><path fill="#37474f" d="M62.5,5H41c-0.276,0-0.5,0.224-0.5,0.5v5c0,0.276,0.224,0.5,0.5,0.5h21.5c0.827,0,1.5-0.673,1.5-1.5v-3
				C64,5.673,63.327,5,62.5,5z M63,9.5c0,0.276-0.224,0.5-0.5,0.5h-21V6h21C62.776,6,63,6.224,63,6.5V9.5z" class="color37474f svgShape"></path><path fill="#455a64" d="M32.5,2h-8C23.119,2,22,3.119,22,4.5v7c0,1.381,1.119,2.5,2.5,2.5h8c1.381,0,2.5-1.119,2.5-2.5v-7
				C35,3.119,33.881,2,32.5,2z" class="color455a64 svgShape"></path><path fill="#37474f" d="M32.5,1.5h-8c-1.654,0-3,1.346-3,3v7c0,1.654,1.346,3,3,3h8c1.654,0,3-1.346,3-3v-7
				C35.5,2.846,34.154,1.5,32.5,1.5z M34.5,11.5c0,1.103-0.897,2-2,2h-8c-1.103,0-2-0.897-2-2v-7c0-1.103,0.897-2,2-2h8
				c1.103,0,2,0.897,2,2V11.5z" class="color37474f svgShape"></path><path fill="#eeeeee" d="M5.5,5.5c-0.552,0-1,0.448-1,1v3c0,0.552,0.448,1,1,1h20v-5H5.5z" class="coloreee svgShape"></path><path fill="#37474f" d="M25.5,5h-20C4.673,5,4,5.673,4,6.5v3C4,10.327,4.673,11,5.5,11h20c0.276,0,0.5-0.224,0.5-0.5v-5
				C26,5.224,25.776,5,25.5,5z M25,10H5.5C5.224,10,5,9.776,5,9.5v-3C5,6.224,5.224,6,5.5,6H25V10z" class="color37474f svgShape"></path><path fill="#78909c" d="M38.5,2h-8C29.119,2,28,3.119,28,4.5v7c0,1.381,1.119,2.5,2.5,2.5h8c1.381,0,2.5-1.119,2.5-2.5v-7
				C41,3.119,39.881,2,38.5,2z" class="color78909c svgShape"></path><path fill="#37474f" d="M38.5,1.5h-8c-1.654,0-3,1.346-3,3v7c0,1.654,1.346,3,3,3h8c1.654,0,3-1.346,3-3v-7
				C41.5,2.846,40.154,1.5,38.5,1.5z M40.5,11.5c0,1.103-0.897,2-2,2h-8c-1.103,0-2-0.897-2-2v-7c0-1.103,0.897-2,2-2h8
				c1.103,0,2,0.897,2,2V11.5z" class="color37474f svgShape"></path><path fill="#b0bec5" d="M30,4c-0.276,0-0.5,0.224-0.5,0.5v7c0,0.276,0.224,0.5,0.5,0.5s0.5-0.224,0.5-0.5v-7
				C30.5,4.224,30.276,4,30,4z" class="colorb0bec5 svgShape"></path><path fill="#455a64" d="M39,4c-0.276,0-0.5,0.224-0.5,0.5v7c0,0.276,0.224,0.5,0.5,0.5s0.5-0.224,0.5-0.5v-7
				C39.5,4.224,39.276,4,39,4z" class="color455a64 svgShape"></path><polygon fill="#eeeeee" points="29 14 29 20 31.5 22.5 34 20 34 14" class="coloreee svgShape"></polygon><path fill="#37474f" d="M34,13.5h-5c-0.276,0-0.5,0.224-0.5,0.5v6c0,0.133,0.053,0.26,0.146,0.354l2.5,2.5
				C31.244,22.951,31.372,23,31.5,23s0.256-0.049,0.354-0.146l2.5-2.5C34.447,20.26,34.5,20.133,34.5,20v-6
				C34.5,13.724,34.276,13.5,34,13.5z M33.5,19.793l-2,2l-2-2V14.5h4V19.793z" class="color37474f svgShape"></path><path fill="#eeeeee" d="M62.5,57h-56c-0.552,0-1,0.448-1,1v3c0,0.552,0.448,1,1,1h56c0.552,0,1-0.448,1-1v-3
				C63.5,57.448,63.052,57,62.5,57z" class="coloreee svgShape"></path><path fill="#37474f" d="M62.5,56.5h-56C5.673,56.5,5,57.173,5,58v3c0,0.827,0.673,1.5,1.5,1.5h56c0.827,0,1.5-0.673,1.5-1.5v-3
				C64,57.173,63.327,56.5,62.5,56.5z M63,61c0,0.276-0.224,0.5-0.5,0.5h-56C6.224,61.5,6,61.276,6,61v-3c0-0.276,0.224-0.5,0.5-0.5
				h56c0.276,0,0.5,0.224,0.5,0.5V61z" class="color37474f svgShape"></path><path fill="#0097a7" d="M42.5,49h-32C9.119,49,8,50.119,8,51.5V57h37v-5.5C45,50.119,43.881,49,42.5,49z" class="color0097a7 svgShape"></path><path fill="#37474f" d="M42.5,48.5h-32c-1.654,0-3,1.346-3,3V57c0,0.276,0.224,0.5,0.5,0.5h37c0.276,0,0.5-0.224,0.5-0.5v-5.5
				C45.5,49.846,44.154,48.5,42.5,48.5z M44.5,56.5h-36v-5c0-1.103,0.897-2,2-2h32c1.103,0,2,0.897,2,2V56.5z" class="color37474f svgShape"></path><path fill="#26c6da" d="M52.5,49h-32c-1.381,0-2.5,1.119-2.5,2.5V57h37v-5.5C55,50.119,53.881,49,52.5,49z" class="color26c6da svgShape"></path><path fill="#37474f" d="M52.5,48.5h-32c-1.654,0-3,1.346-3,3V57c0,0.276,0.224,0.5,0.5,0.5h37c0.276,0,0.5-0.224,0.5-0.5v-5.5
				C55.5,49.846,54.154,48.5,52.5,48.5z M54.5,56.5h-36v-5c0-1.103,0.897-2,2-2h32c1.103,0,2,0.897,2,2V56.5z" class="color37474f svgShape"></path><path fill="#80deea" d="M20,51c-0.276,0-0.5,0.224-0.5,0.5v4c0,0.276,0.224,0.5,0.5,0.5s0.5-0.224,0.5-0.5v-4
				C20.5,51.224,20.276,51,20,51z" class="color80deea svgShape"></path><path fill="#26c6da" d="M10,51c-0.276,0-0.5,0.224-0.5,0.5v4c0,0.276,0.224,0.5,0.5,0.5s0.5-0.224,0.5-0.5v-4
				C10.5,51.224,10.276,51,10,51z" class="color26c6da svgShape"></path><path fill="#0097a7" d="M53,51c-0.276,0-0.5,0.224-0.5,0.5v4c0,0.276,0.224,0.5,0.5,0.5s0.5-0.224,0.5-0.5v-4
				C53.5,51.224,53.276,51,53,51z" class="color0097a7 svgShape"></path><path fill="#37474f" d="M34 17.5h-5c-.276 0-.5.224-.5.5s.224.5.5.5h5c.276 0 .5-.224.5-.5S34.276 17.5 34 17.5zM34 15.5h-5c-.276 0-.5.224-.5.5s.224.5.5.5h5c.276 0 .5-.224.5-.5S34.276 15.5 34 15.5z" class="color37474f svgShape"></path><rect width="6" height="15" x="46" y="34" fill="#ffca28" class="colorffca28 svgShape"></rect><path fill="#37474f" d="M52,33.5h-6c-0.276,0-0.5,0.224-0.5,0.5v15c0,0.276,0.224,0.5,0.5,0.5h6c0.276,0,0.5-0.224,0.5-0.5V34
				C52.5,33.724,52.276,33.5,52,33.5z M51.5,48.5h-5v-14h5V48.5z" class="color37474f svgShape"></path><rect width="6" height="15" x="40" y="34" fill="#ffa000" class="colorffa000 svgShape"></rect><path fill="#37474f" d="M46,33.5h-6c-0.276,0-0.5,0.224-0.5,0.5v15c0,0.276,0.224,0.5,0.5,0.5h6c0.276,0,0.5-0.224,0.5-0.5V34
				C46.5,33.724,46.276,33.5,46,33.5z M45.5,48.5h-5v-14h5V48.5z" class="color37474f svgShape"></path><rect width="4.5" height="8" x="46" y="26" fill="#ffca28" class="colorffca28 svgShape"></rect><path fill="#37474f" d="M50.5,25.5H46c-0.276,0-0.5,0.224-0.5,0.5v8c0,0.276,0.224,0.5,0.5,0.5h4.5c0.276,0,0.5-0.224,0.5-0.5v-8
				C51,25.724,50.776,25.5,50.5,25.5z M50,33.5h-3.5v-7H50V33.5z" class="color37474f svgShape"></path><rect width="4.5" height="8" x="41.5" y="26" fill="#ffa000" class="colorffa000 svgShape"></rect><path fill="#37474f" d="M46,25.5h-4.5c-0.276,0-0.5,0.224-0.5,0.5v8c0,0.276,0.224,0.5,0.5,0.5H46c0.276,0,0.5-0.224,0.5-0.5v-8
				C46.5,25.724,46.276,25.5,46,25.5z M45.5,33.5H42v-7h3.5V33.5z" class="color37474f svgShape"></path><rect width="6" height="15" x="17" y="34" fill="#ffca28" class="colorffca28 svgShape"></rect><path fill="#37474f" d="M23,33.5h-6c-0.276,0-0.5,0.224-0.5,0.5v15c0,0.276,0.224,0.5,0.5,0.5h6c0.276,0,0.5-0.224,0.5-0.5V34
				C23.5,33.724,23.276,33.5,23,33.5z M22.5,48.5h-5v-14h5V48.5z" class="color37474f svgShape"></path><rect width="6" height="15" x="11" y="34" fill="#ffa000" class="colorffa000 svgShape"></rect><path fill="#37474f" d="M17,33.5h-6c-0.276,0-0.5,0.224-0.5,0.5v15c0,0.276,0.224,0.5,0.5,0.5h6c0.276,0,0.5-0.224,0.5-0.5V34
				C17.5,33.724,17.276,33.5,17,33.5z M16.5,48.5h-5v-14h5V48.5z" class="color37474f svgShape"></path><path fill="#ffca28" d="M13,35.5c-0.276,0-0.5,0.224-0.5,0.5v11c0,0.276,0.224,0.5,0.5,0.5s0.5-0.224,0.5-0.5V36
				C13.5,35.724,13.276,35.5,13,35.5z" class="colorffca28 svgShape"></path><path fill="#ffe082" d="M19,35.5c-0.276,0-0.5,0.224-0.5,0.5v11c0,0.276,0.224,0.5,0.5,0.5s0.5-0.224,0.5-0.5V36
				C19.5,35.724,19.276,35.5,19,35.5z" class="colorffe082 svgShape"></path><path fill="#ffca28" d="M42,35.5c-0.276,0-0.5,0.224-0.5,0.5v11c0,0.276,0.224,0.5,0.5,0.5s0.5-0.224,0.5-0.5V36
				C42.5,35.724,42.276,35.5,42,35.5z" class="colorffca28 svgShape"></path><path fill="#ffe082" d="M48,35.5c-0.276,0-0.5,0.224-0.5,0.5v11c0,0.276,0.224,0.5,0.5,0.5s0.5-0.224,0.5-0.5V36
				C48.5,35.724,48.276,35.5,48,35.5z" class="colorffe082 svgShape"></path><rect width="4.5" height="8" x="17" y="26" fill="#ffca28" class="colorffca28 svgShape"></rect><path fill="#37474f" d="M21.5,25.5H17c-0.276,0-0.5,0.224-0.5,0.5v8c0,0.276,0.224,0.5,0.5,0.5h4.5c0.276,0,0.5-0.224,0.5-0.5v-8
				C22,25.724,21.776,25.5,21.5,25.5z M21,33.5h-3.5v-7H21V33.5z" class="color37474f svgShape"></path><rect width="4.5" height="8" x="12.5" y="26" fill="#ffa000" class="colorffa000 svgShape"></rect><path fill="#37474f" d="M17 25.5h-4.5c-.276 0-.5.224-.5.5v8c0 .276.224.5.5.5H17c.276 0 .5-.224.5-.5v-8C17.5 25.724 17.276 25.5 17 25.5zM16.5 33.5H13v-7h3.5V33.5zM46 43.5H23c-.276 0-.5.224-.5.5s.224.5.5.5h23c.276 0 .5-.224.5-.5S46.276 43.5 46 43.5z" class="color37474f svgShape"></path><path fill="#37474f" d="M29 37.577c-.276 0-.5.224-.5.5V44c0 .276.224.5.5.5s.5-.224.5-.5v-5.923C29.5 37.801 29.276 37.577 29 37.577zM34.5 38.622c-.276 0-.5.224-.5.5V44c0 .276.224.5.5.5S35 44.276 35 44v-4.878C35 38.846 34.776 38.622 34.5 38.622z" class="color37474f svgShape"></path><path fill="#eeeeee" d="M56,17c0-1.381-1.119-2.5-2.5-2.5S51,15.619,51,17c-1.381,0-2.5,1.119-2.5,2.5c0,1.381,1.119,2.5,2.5,2.5h5
				c1.381,0,2.5-1.119,2.5-2.5C58.5,18.119,57.381,17,56,17z" class="coloreee svgShape"></path><path fill="#37474f" d="M56.464,16.536C56.24,15.101,54.997,14,53.5,14s-2.74,1.101-2.964,2.536C49.101,16.76,48,18.003,48,19.5
				c0,1.654,1.346,3,3,3h5c1.654,0,3-1.346,3-3C59,18.003,57.899,16.76,56.464,16.536z M56,21.5h-5c-1.103,0-2-0.897-2-2
				s0.897-2,2-2c0.276,0,0.5-0.224,0.5-0.5c0-1.103,0.897-2,2-2s2,0.897,2,2c0,0.276,0.224,0.5,0.5,0.5c1.103,0,2,0.897,2,2
				S57.103,21.5,56,21.5z" class="color37474f svgShape"></path><path fill="#eeeeee" d="M17.75,17.5h-0.5v-0.25c0-0.966-0.784-1.75-1.75-1.75s-1.75,0.784-1.75,1.75v0.25h-0.5
				c-0.966,0-1.75,0.784-1.75,1.75S12.284,21,13.25,21h4.5c0.966,0,1.75-0.784,1.75-1.75S18.716,17.5,17.75,17.5z" class="coloreee svgShape"></path><path fill="#37474f" d="M17.75,17h-0.014c-0.125-1.124-1.08-2-2.236-2s-2.111,0.876-2.236,2H13.25C12.009,17,11,18.009,11,19.25
				s1.009,2.25,2.25,2.25h4.5c1.241,0,2.25-1.009,2.25-2.25S18.991,17,17.75,17z M17.75,20.5h-4.5c-0.689,0-1.25-0.561-1.25-1.25
				S12.561,18,13.25,18h0.5c0.276,0,0.5-0.224,0.5-0.5v-0.25c0-0.689,0.561-1.25,1.25-1.25s1.25,0.561,1.25,1.25v0.25
				c0,0.276,0.224,0.5,0.5,0.5h0.5c0.689,0,1.25,0.561,1.25,1.25S18.439,20.5,17.75,20.5z" class="color37474f svgShape"></path><path fill="#eeeeee" d="M61.75,32.5h-0.5v-0.25c0-0.966-0.784-1.75-1.75-1.75s-1.75,0.784-1.75,1.75v0.25h-0.5
				c-0.966,0-1.75,0.784-1.75,1.75S56.284,36,57.25,36h4.5c0.966,0,1.75-0.784,1.75-1.75S62.716,32.5,61.75,32.5z" class="coloreee svgShape"></path><path fill="#37474f" d="M61.75,32h-0.014c-0.125-1.124-1.08-2-2.236-2s-2.111,0.876-2.236,2H57.25C56.009,32,55,33.009,55,34.25
				s1.009,2.25,2.25,2.25h4.5c1.241,0,2.25-1.009,2.25-2.25S62.991,32,61.75,32z M61.75,35.5h-4.5c-0.689,0-1.25-0.561-1.25-1.25
				S56.561,33,57.25,33h0.5c0.276,0,0.5-0.224,0.5-0.5v-0.25c0-0.689,0.561-1.25,1.25-1.25s1.25,0.561,1.25,1.25v0.25
				c0,0.276,0.224,0.5,0.5,0.5h0.5c0.689,0,1.25,0.561,1.25,1.25S62.439,35.5,61.75,35.5z" class="color37474f svgShape"></path><path fill="#eeeeee" d="M6.75,27.5h-0.5v-0.25c0-0.966-0.784-1.75-1.75-1.75s-1.75,0.784-1.75,1.75v0.25h-0.5
				c-0.966,0-1.75,0.784-1.75,1.75S1.284,31,2.25,31h4.5c0.966,0,1.75-0.784,1.75-1.75S7.716,27.5,6.75,27.5z" class="coloreee svgShape"></path><path fill="#37474f" d="M6.75 27H6.736c-.125-1.124-1.08-2-2.236-2s-2.111.876-2.236 2H2.25C1.009 27 0 28.009 0 29.25s1.009 2.25 2.25 2.25h4.5C7.991 31.5 9 30.491 9 29.25S7.991 27 6.75 27zM6.75 30.5h-4.5C1.561 30.5 1 29.939 1 29.25S1.561 28 2.25 28h.5c.276 0 .5-.224.5-.5v-.25C3.25 26.561 3.811 26 4.5 26s1.25.561 1.25 1.25v.25c0 .276.224.5.5.5h.5C7.439 28 8 28.561 8 29.25S7.439 30.5 6.75 30.5zM46.377 33.672c-.182-.209-.498-.229-.706-.049l-1.657 1.441c-5.424 4.718-13.605 4.718-19.029 0l-1.657-1.441c-.208-.18-.523-.16-.706.049-.181.208-.159.524.049.706l1.657 1.441C27.229 38.34 30.864 39.6 34.5 39.6c3.635 0 7.272-1.261 10.171-3.782l1.657-1.441C46.537 34.196 46.559 33.88 46.377 33.672z" class="color37474f svgShape"></path></svg></g></svg>