<svg xmlns="http://www.w3.org/2000/svg" id="skyscraper" enable-background="new 0 0 135 135" viewBox="0 0 135 135">
  <rect width="36.668" height="36.703" x="93.075" y="91.636" fill="#b9c1c9"></rect>
  <rect width="25.775" height="67.45" x="98.521" y="24.186" fill="#b9c1c9"></rect>
  <rect width="25.775" height="3.518" x="98.521" y="88.119" fill="#2c2c34" opacity=".08"></rect>
  <rect width="18.29" height="11.255" x="102.264" y="12.932" fill="#b9c1c9"></rect>
  <rect width="18.29" height="1.822" x="102.264" y="22.364" fill="#2c2c34" opacity=".08"></rect>
  <rect width="11.47" height="9.432" x="105.674" y="3.5" fill="#b9c1c9"></rect>
  <rect width="11.47" height="1.351" x="105.674" y="11.581" fill="#2c2c34" opacity=".08"></rect>
  <rect width="32.09" height="2.32" x="95.364" y="95.082" fill="#94a3af"></rect>
  <rect width="32.09" height="2.32" x="95.364" y="99.72" fill="#94a3af"></rect>
  <rect width="32.09" height="2.32" x="95.364" y="104.357" fill="#94a3af"></rect>
  <rect width="32.09" height="2.32" x="95.364" y="108.995" fill="#94a3af"></rect>
  <rect width="32.09" height="2.32" x="95.364" y="113.633" fill="#94a3af"></rect>
  <rect width="32.09" height="2.32" x="95.364" y="118.271" fill="#94a3af"></rect>
  <rect width="32.09" height="2.32" x="95.364" y="122.908" fill="#94a3af"></rect>
  <rect width="5.17" height="5.159" x="101.241" y="27.297" fill="#94a3af"></rect>
  <rect width="5.17" height="5.159" x="108.824" y="27.297" fill="#94a3af"></rect>
  <rect width="5.17" height="5.159" x="116.406" y="27.297" fill="#94a3af"></rect>
  <g>
    <rect width="5.17" height="5.159" x="101.241" y="35.392" fill="#94a3af"></rect>
    <rect width="5.17" height="5.159" x="108.824" y="35.392" fill="#94a3af"></rect>
    <rect width="5.17" height="5.159" x="116.406" y="35.392" fill="#94a3af"></rect>
  </g>
  <g>
    <rect width="5.17" height="5.159" x="101.241" y="43.487" fill="#94a3af"></rect>
    <rect width="5.17" height="5.159" x="108.824" y="43.487" fill="#94a3af"></rect>
    <rect width="5.17" height="5.159" x="116.406" y="43.487" fill="#94a3af"></rect>
  </g>
  <g>
    <rect width="5.17" height="5.159" x="101.241" y="51.581" fill="#94a3af"></rect>
    <rect width="5.17" height="5.159" x="108.824" y="51.581" fill="#94a3af"></rect>
    <rect width="5.17" height="5.159" x="116.406" y="51.581" fill="#94a3af"></rect>
  </g>
  <g>
    <rect width="5.17" height="5.159" x="101.241" y="59.676" fill="#94a3af"></rect>
    <rect width="5.17" height="5.159" x="108.824" y="59.676" fill="#94a3af"></rect>
    <rect width="5.17" height="5.159" x="116.406" y="59.676" fill="#94a3af"></rect>
  </g>
  <g>
    <rect width="5.17" height="5.159" x="101.241" y="67.77" fill="#94a3af"></rect>
    <rect width="5.17" height="5.159" x="108.824" y="67.77" fill="#94a3af"></rect>
    <rect width="5.17" height="5.159" x="116.406" y="67.77" fill="#94a3af"></rect>
  </g>
  <g>
    <rect width="5.17" height="5.159" x="101.241" y="75.865" fill="#94a3af"></rect>
    <rect width="5.17" height="5.159" x="108.824" y="75.865" fill="#94a3af"></rect>
    <rect width="5.17" height="5.159" x="116.406" y="75.865" fill="#94a3af"></rect>
  </g>
  <g>
    <rect width="5.17" height="5.159" x="101.241" y="83.96" fill="#94a3af"></rect>
    <rect width="5.17" height="5.159" x="108.824" y="83.96" fill="#94a3af"></rect>
    <rect width="5.17" height="5.159" x="116.406" y="83.96" fill="#94a3af"></rect>
  </g>
  <rect width="3.744" height="104.153" x="99.48" y="24.186" fill="#2c2c34" opacity=".08"></rect>
  <rect width="128" height="3.16" x="3.5" y="128.34" fill="#7a8490"></rect>
  <g>
    <rect width="36.81" height="107.249" x="49.095" y="17.44" fill="#dadfe8"></rect>
    <rect width="36.81" height="2.108" x="49.095" y="17.44" fill="#2c2c34" opacity=".08"></rect>
    <rect width="39.936" height="4.508" x="47.532" y="12.932" fill="#807f84"></rect>
    <rect width="15.178" height="4.508" x="85.905" y="24.174" fill="#807f84"></rect>
    <rect width="13.575" height="96.007" x="35.52" y="28.682" fill="#ced4dd"></rect>
    <rect width="13.575" height="96.007" x="85.905" y="28.682" fill="#ced4dd"></rect>
    <rect width="13.575" height="2.108" x="85.905" y="28.682" fill="#2c2c34" opacity=".08"></rect>
    <rect width="15.178" height="4.508" x="85.905" y="24.174" fill="#807f84"></rect>
    <rect width="13.575" height="2.108" x="85.905" y="28.682" fill="#2c2c34" opacity=".08"></rect>
    <rect width="15.178" height="4.508" x="33.916" y="24.174" fill="#807f84"></rect>
    <rect width="13.575" height="2.108" x="35.52" y="28.682" fill="#2c2c34" opacity=".08"></rect>
    <rect width="1.864" height="96.007" x="85.905" y="28.682" fill="#2c2c34" opacity=".08"></rect>
    <rect width="1.864" height="96.007" x="47.231" y="28.682" fill="#2c2c34" opacity=".08"></rect>
    <rect width="15.819" height="94.954" x="59.591" y="29.739" fill="#69b0e0"></rect>
    <rect width="1.087" height="84.51" x="66.957" y="40.182" fill="#429ed1"></rect>
    <rect width="15.818" height="1.087" x="59.591" y="40.182" fill="#429ed1"></rect>
    <rect width="15.818" height="1.087" x="59.591" y="46.817" fill="#429ed1"></rect>
    <rect width="15.818" height="1.087" x="59.591" y="53.451" fill="#429ed1"></rect>
    <rect width="15.818" height="1.087" x="59.591" y="60.086" fill="#429ed1"></rect>
    <rect width="15.818" height="1.087" x="59.591" y="66.72" fill="#429ed1"></rect>
    <rect width="15.818" height="1.087" x="59.591" y="73.355" fill="#429ed1"></rect>
    <rect width="15.818" height="1.087" x="59.591" y="79.989" fill="#429ed1"></rect>
    <rect width="15.818" height="1.087" x="59.591" y="86.624" fill="#429ed1"></rect>
    <rect width="15.818" height="1.087" x="59.591" y="93.258" fill="#429ed1"></rect>
    <rect width="15.818" height="1.087" x="59.591" y="99.893" fill="#429ed1"></rect>
    <rect width="15.818" height="1.087" x="59.591" y="106.527" fill="#429ed1"></rect>
    <rect width="15.818" height="1.087" x="59.591" y="113.162" fill="#429ed1"></rect>
    <rect width="15.818" height="1.087" x="59.591" y="119.796" fill="#429ed1"></rect>
    <rect width="1.087" height="94.952" x="59.591" y="29.74" fill="#fff"></rect>
    <rect width="15.818" height="1.087" x="59.591" y="29.739" fill="#fff"></rect>
    <rect width="1.087" height="94.952" x="74.323" y="29.74" fill="#fff"></rect>
    <rect width="4.412" height="7.549" x="78.449" y="31.764" fill="#69b0e0"></rect>
    <path fill="#fff" d="M83.2243195,39.6773186h-5.1389771v-8.2798042h5.1389771V39.6773186z M78.8206482,38.9420166h3.6683731
								v-6.8092003h-3.6683731V38.9420166z"></path>
    <rect width="4.412" height="7.549" x="78.449" y="43.672" fill="#69b0e0"></rect>
    <path fill="#fff" d="M83.2243195,51.585331h-5.1389771v-8.2798042h5.1389771V51.585331z M78.8206482,50.850029h3.6683731
								v-6.8092003h-3.6683731V50.850029z"></path>
    <rect width="4.412" height="7.549" x="78.449" y="55.58" fill="#69b0e0"></rect>
    <path fill="#fff" d="M83.2243195,63.4933434h-5.1389771v-8.2798042h5.1389771V63.4933434z M78.8206482,62.7580414h3.6683731
								v-6.8092003h-3.6683731V62.7580414z"></path>
    <rect width="4.412" height="7.549" x="78.449" y="67.488" fill="#69b0e0"></rect>
    <path fill="#fff" d="M83.2243195,75.4013596h-5.1389771v-8.279808h5.1389771V75.4013596z M78.8206482,74.6660538h3.6683731
								v-6.8092041h-3.6683731V74.6660538z"></path>
    <g>
      <rect width="4.412" height="7.549" x="78.449" y="79.396" fill="#69b0e0"></rect>
      <path fill="#fff" d="M83.2243195,87.3093719h-5.1389771v-8.279808h5.1389771V87.3093719z M78.8206482,86.5740662h3.6683731
								v-6.8091965h-3.6683731V86.5740662z"></path>
    </g>
    <g>
      <rect width="4.412" height="7.549" x="78.449" y="91.304" fill="#69b0e0"></rect>
      <path fill="#fff" d="M83.2243195,99.2173843h-5.1389771v-8.279808h5.1389771V99.2173843z M78.8206482,98.4820786h3.6683731
								v-6.8091965h-3.6683731V98.4820786z"></path>
    </g>
    <g>
      <rect width="4.412" height="7.549" x="78.449" y="103.212" fill="#69b0e0"></rect>
      <path fill="#fff" d="M83.2243195,111.1253967h-5.1389771v-8.279808h5.1389771V111.1253967z M78.8206482,110.3900909
								h3.6683731v-6.8091965h-3.6683731V110.3900909z"></path>
    </g>
    <g>
      <rect width="4.412" height="7.549" x="78.449" y="115.12" fill="#69b0e0"></rect>
      <path fill="#fff" d="M83.2243195,123.0334091h-5.1389771v-8.279808h5.1389771V123.0334091z M78.8206482,122.2981033
								h3.6683731v-6.8091965h-3.6683731V122.2981033z"></path>
    </g>
    <g>
      <rect width="4.412" height="7.549" x="52.139" y="31.764" fill="#69b0e0"></rect>
      <path fill="#fff" d="M56.9146538,39.6773186h-5.1389732v-8.2798042h5.1389732V39.6773186z M52.5109825,38.9420166h3.6683693
								v-6.8092003h-3.6683693V38.9420166z"></path>
      <rect width="4.412" height="7.549" x="52.139" y="43.672" fill="#69b0e0"></rect>
      <path fill="#fff" d="M56.9146538,51.585331h-5.1389732v-8.2798042h5.1389732V51.585331z M52.5109825,50.850029h3.6683693
								v-6.8092003h-3.6683693V50.850029z"></path>
      <rect width="4.412" height="7.549" x="52.139" y="55.58" fill="#69b0e0"></rect>
      <path fill="#fff" d="M56.9146538,63.4933434h-5.1389732v-8.2798042h5.1389732V63.4933434z M52.5109825,62.7580414h3.6683693
								v-6.8092003h-3.6683693V62.7580414z"></path>
      <rect width="4.412" height="7.549" x="52.139" y="67.488" fill="#69b0e0"></rect>
      <path fill="#fff" d="M56.9146538,75.4013596h-5.1389732v-8.279808h5.1389732V75.4013596z M52.5109825,74.6660538h3.6683693
								v-6.8092041h-3.6683693V74.6660538z"></path>
      <g>
        <rect width="4.412" height="7.549" x="52.139" y="79.396" fill="#69b0e0"></rect>
        <path fill="#fff" d="M56.9146538,87.3093719h-5.1389732v-8.279808h5.1389732V87.3093719z M52.5109825,86.5740662h3.6683693
								v-6.8091965h-3.6683693V86.5740662z"></path>
      </g>
      <g>
        <rect width="4.412" height="7.549" x="52.139" y="91.304" fill="#69b0e0"></rect>
        <path fill="#fff" d="M56.9146538,99.2173843h-5.1389732v-8.279808h5.1389732V99.2173843z M52.5109825,98.4820786h3.6683693
								v-6.8091965h-3.6683693V98.4820786z"></path>
      </g>
      <g>
        <rect width="4.412" height="7.549" x="52.139" y="103.212" fill="#69b0e0"></rect>
        <path fill="#fff" d="M56.9146538,111.1253967h-5.1389732v-8.279808h5.1389732V111.1253967z M52.5109825,110.3900909
								h3.6683693v-6.8091965h-3.6683693V110.3900909z"></path>
      </g>
      <g>
        <rect width="4.412" height="7.549" x="52.139" y="115.12" fill="#69b0e0"></rect>
        <path fill="#fff" d="M56.9146538,123.0334091h-5.1389732v-8.279808h5.1389732V123.0334091z M52.5109825,122.2981033
								h3.6683693v-6.8091965h-3.6683693V122.2981033z"></path>
      </g>
    </g>
    <g>
      <rect width="11.59" height="4.917" x="62.212" y="21.653" fill="#69b0e0"></rect>
      <path fill="#fff" d="M74.1657639,21.2890987v5.6440487H61.8453712v-5.6440487H74.1657639z M73.4304657,26.1978455v-4.1734447
						H62.5806694v4.1734447H73.4304657z"></path>
    </g>
    <g>
      <rect width="5.605" height="9.591" x="89.889" y="34.067" fill="#69b0e0"></rect>
      <path fill="#fff" d="M95.9571533,44.121212h-6.5293045V33.6013298h6.5293045V44.121212z M90.3620834,43.1869774h4.6608353
							v-8.651413h-4.6608353V43.1869774z"></path>
      <rect width="5.605" height="9.591" x="89.889" y="49.197" fill="#69b0e0"></rect>
      <path fill="#fff" d="M95.9571533,59.2509079h-6.5293045v-10.519886h6.5293045V59.2509079z M90.3620834,58.3166695h4.6608353
							v-8.651413h-4.6608353V58.3166695z"></path>
      <rect width="5.605" height="9.591" x="89.889" y="64.326" fill="#69b0e0"></rect>
      <path fill="#fff" d="M95.9571533,74.3806h-6.5293045V63.8607178h6.5293045V74.3806z M90.3620834,73.4463654h4.6608353
							v-8.651413h-4.6608353V73.4463654z"></path>
      <g>
        <rect width="5.605" height="9.591" x="89.889" y="79.456" fill="#69b0e0"></rect>
        <path fill="#fff" d="M95.9571533,89.5102921h-6.5293045V78.9904099h6.5293045V89.5102921z M90.3620834,88.5760574h4.6608353
							v-8.651413h-4.6608353V88.5760574z"></path>
      </g>
      <g>
        <rect width="5.605" height="9.591" x="89.889" y="94.586" fill="#69b0e0"></rect>
        <path fill="#fff" d="M95.9571533,104.6399918h-6.5293045V94.1201019h6.5293045V104.6399918z M90.3620834,103.7057495
							h4.6608353v-8.6514053h-4.6608353V103.7057495z"></path>
      </g>
      <g>
        <rect width="5.605" height="9.591" x="89.889" y="109.715" fill="#69b0e0"></rect>
        <path fill="#fff" d="M95.9571533,119.7696838h-6.5293045v-10.5198822h6.5293045V119.7696838z M90.3620834,118.8354492
							h4.6608353v-8.651413h-4.6608353V118.8354492z"></path>
      </g>
    </g>
    <g>
      <rect width="5.605" height="9.591" x="39.504" y="34.067" fill="#69b0e0"></rect>
      <path fill="#fff" d="M45.572155,44.121212h-6.5293121V33.6013298h6.5293121V44.121212z M39.9770813,43.1869774h4.6608391
							v-8.651413h-4.6608391V43.1869774z"></path>
      <rect width="5.605" height="9.591" x="39.504" y="49.197" fill="#69b0e0"></rect>
      <path fill="#fff" d="M45.572155,59.2509079h-6.5293121v-10.519886h6.5293121V59.2509079z M39.9770813,58.3166695h4.6608391
							v-8.651413h-4.6608391V58.3166695z"></path>
      <rect width="5.605" height="9.591" x="39.504" y="64.326" fill="#69b0e0"></rect>
      <path fill="#fff" d="M45.572155,74.3806h-6.5293121V63.8607178h6.5293121V74.3806z M39.9770813,73.4463654h4.6608391
							v-8.651413h-4.6608391V73.4463654z"></path>
      <g>
        <rect width="5.605" height="9.591" x="39.504" y="79.456" fill="#69b0e0"></rect>
        <path fill="#fff" d="M45.572155,89.5102921h-6.5293121V78.9904099h6.5293121V89.5102921z M39.9770813,88.5760574h4.6608391
							v-8.651413h-4.6608391V88.5760574z"></path>
      </g>
      <g>
        <rect width="5.605" height="9.591" x="39.504" y="94.586" fill="#69b0e0"></rect>
        <path fill="#fff" d="M45.572155,104.6399918h-6.5293121V94.1201019h6.5293121V104.6399918z M39.9770813,103.7057495h4.6608391
							v-8.6514053h-4.6608391V103.7057495z"></path>
      </g>
      <g>
        <rect width="5.605" height="9.591" x="39.504" y="109.715" fill="#69b0e0"></rect>
        <path fill="#fff" d="M45.572155,119.7696838h-6.5293121v-10.5198822h6.5293121V119.7696838z M39.9770813,118.8354492
							h4.6608391v-8.651413h-4.6608391V118.8354492z"></path>
      </g>
    </g>
    <rect width="69.382" height="3.655" x="32.809" y="124.685" fill="#44433f"></rect>
  </g>
  <g>
    <rect width="26.577" height="101.549" x="5.243" y="26.791" fill="#2877a0"></rect>
    <rect width="18.859" height="6.314" x="9.102" y="20.477" fill="#2877a0"></rect>
    <rect width="12.739" height="8.044" x="12.162" y="12.433" fill="#2877a0"></rect>
    <rect width="12.739" height="2.521" x="12.162" y="17.956" fill="#2c2c34" opacity=".08"></rect>
    <rect width="18.859" height="1.879" x="9.102" y="24.912" fill="#2c2c34" opacity=".08"></rect>
    <rect width="21.688" height="2.246" x="7.681" y="30.783" fill="#a1e1fe"></rect>
    <rect width="21.688" height="2.246" x="7.681" y="35.856" fill="#a1e1fe"></rect>
    <rect width="21.688" height="2.246" x="7.681" y="40.93" fill="#a1e1fe"></rect>
    <rect width="21.688" height="2.246" x="7.681" y="46.003" fill="#a1e1fe"></rect>
    <rect width="21.688" height="2.246" x="7.681" y="51.076" fill="#a1e1fe"></rect>
    <rect width="21.688" height="2.246" x="7.681" y="56.149" fill="#a1e1fe"></rect>
    <rect width="21.688" height="2.246" x="7.681" y="61.223" fill="#a1e1fe"></rect>
    <rect width="21.688" height="2.246" x="7.681" y="66.296" fill="#a1e1fe"></rect>
    <rect width="21.688" height="2.246" x="7.681" y="71.369" fill="#a1e1fe"></rect>
    <rect width="21.688" height="2.246" x="7.681" y="76.442" fill="#a1e1fe"></rect>
    <rect width="21.688" height="2.246" x="7.681" y="81.515" fill="#a1e1fe"></rect>
    <rect width="21.688" height="2.246" x="7.681" y="86.589" fill="#a1e1fe"></rect>
    <rect width="21.688" height="2.246" x="7.681" y="91.662" fill="#a1e1fe"></rect>
    <rect width="21.688" height="2.246" x="7.681" y="96.735" fill="#a1e1fe"></rect>
    <rect width="21.688" height="2.246" x="7.681" y="101.808" fill="#a1e1fe"></rect>
    <rect width="21.688" height="2.246" x="7.681" y="106.882" fill="#a1e1fe"></rect>
    <rect width="21.688" height="2.246" x="7.681" y="111.955" fill="#a1e1fe"></rect>
    <rect width="21.688" height="2.246" x="7.681" y="117.028" fill="#a1e1fe"></rect>
    <rect width="21.688" height="2.246" x="7.681" y="122.101" fill="#a1e1fe"></rect>
  </g>
</svg>
